<svg id="Layer_1" data-name="Layer 1" xmlns="http://www.w3.org/2000/svg" viewBox="0 0 245.76 53.91"><defs><style>.cls-1{fill:#3c3c3b;}.cls-2{fill:#706f6f;}.cls-3{fill:#e30613;}.cls-4{fill:#65b32e;}.cls-5{fill:#c00d0d;}.cls-6{fill:#008d36;}</style></defs><title>Mesa de trabajo 4</title><path class="cls-1" d="M58.75,3.37a1,1,0,0,1,.33-.76,1.12,1.12,0,0,1,.79-.28H85.46a1.17,1.17,0,0,1,.76.26,1.1,1.1,0,0,1,.38.78V9.31a1.32,1.32,0,0,1-.3.82,1,1,0,0,1-.84.4H77.25V36.7a1.12,1.12,0,0,1-.31.78,1,1,0,0,1-.8.35h-7a1.12,1.12,0,0,1-.76-.32,1.06,1.06,0,0,1-.36-.81V10.53H59.87a1.1,1.1,0,0,1-.79-.31,1.19,1.19,0,0,1-.33-.91Z"/><path class="cls-1" d="M92.4,3.43a1.17,1.17,0,0,1,.26-.8,1,1,0,0,1,.78-.3h15.37a11.32,11.32,0,0,1,4.58.92,11.64,11.64,0,0,1,6.25,6.19,11.39,11.39,0,0,1,.91,4.51,10.84,10.84,0,0,1-.44,3.09,11.52,11.52,0,0,1-1.22,2.75,12,12,0,0,1-4.24,4.1l6.11,11.57c.12.23.26.49.43.79a1.59,1.59,0,0,1,.26.79.71.71,0,0,1-.25.59,1,1,0,0,1-.67.2h-8.16a1.16,1.16,0,0,1-.72-.24,1,1,0,0,1-.42-.65L105.45,26H101.6V36.8c0,.68-.36,1-1.09,1H93.44a1.11,1.11,0,0,1-.76-.25,1,1,0,0,1-.28-.78ZM111,14a4,4,0,0,0-.26-1.43,4.73,4.73,0,0,0-.73-1.32,4.37,4.37,0,0,0-1.14-1,4,4,0,0,0-1.48-.53l-1.25-.08c-.39,0-.81,0-1.27,0H101.6v8.78H106c.29,0,.54,0,.77,0s.46,0,.73-.07a3.69,3.69,0,0,0,1.5-.49,3.92,3.92,0,0,0,1.12-1,4.44,4.44,0,0,0,.69-1.31A4.79,4.79,0,0,0,111,14Z"/><path class="cls-1" d="M125.9,3.38a1.11,1.11,0,0,1,.26-.74,1,1,0,0,1,.79-.31h7a1.35,1.35,0,0,1,.76.28.89.89,0,0,1,.4.77v33.4c0,.7-.39,1-1.16,1h-7a.93.93,0,0,1-1-1Z"/><path class="cls-1" d="M142.73,3.43a1.08,1.08,0,0,1,.28-.8,1,1,0,0,1,.77-.3h15.79a9.71,9.71,0,0,1,3.94.8,10.1,10.1,0,0,1,3.25,2.2A10.4,10.4,0,0,1,169,8.6a10,10,0,0,1,.81,4,9.7,9.7,0,0,1-.56,3.33,9.15,9.15,0,0,1-1.58,2.77,11.71,11.71,0,0,1,2.71,3.75,11,11,0,0,1,1,4.61,10.34,10.34,0,0,1-.84,4.13,11.2,11.2,0,0,1-2.24,3.42A10.78,10.78,0,0,1,165,37a9.53,9.53,0,0,1-4,.86H143.78a1.09,1.09,0,0,1-.76-.25,1,1,0,0,1-.29-.78Zm17.91,9.41a3.47,3.47,0,0,0-.26-1.33,3.61,3.61,0,0,0-.74-1.1,3.55,3.55,0,0,0-1.15-.76A3.82,3.82,0,0,0,157,9.38h-5.11v6.93h5a4.24,4.24,0,0,0,1.49-.25,3.3,3.3,0,0,0,1.15-.72,3.26,3.26,0,0,0,.75-1.1A3.33,3.33,0,0,0,160.64,12.84Zm1.26,13.9a3.88,3.88,0,0,0-.28-1.44,4.14,4.14,0,0,0-.76-1.28,4.08,4.08,0,0,0-1.17-.92,3.06,3.06,0,0,0-1.46-.36h-6.3v8h6.3a3.1,3.1,0,0,0,1.45-.34,3.79,3.79,0,0,0,1.17-.89,4.16,4.16,0,0,0,.77-1.28A4,4,0,0,0,161.9,26.74Z"/><path class="cls-1" d="M185.36,23.67a8.26,8.26,0,0,0,.49,3,5.81,5.81,0,0,0,1.29,2A4.83,4.83,0,0,0,189,29.82a6.77,6.77,0,0,0,2.2.36,6,6,0,0,0,2.25-.42,5.19,5.19,0,0,0,1.86-1.24,6,6,0,0,0,1.26-2.05,7.82,7.82,0,0,0,.47-2.8V3.38a1,1,0,0,1,.29-.74,1.05,1.05,0,0,1,.8-.31h6.94a1.12,1.12,0,0,1,.86.32,1,1,0,0,1,.31.73V23.53a17.93,17.93,0,0,1-1.22,7,12.13,12.13,0,0,1-3.3,4.58,12.75,12.75,0,0,1-4.79,2.49,21.41,21.41,0,0,1-5.72.75,20.81,20.81,0,0,1-5.73-.78,12.72,12.72,0,0,1-4.8-2.53,12.2,12.2,0,0,1-3.29-4.59,17.46,17.46,0,0,1-1.23-6.95V3.38a1.1,1.1,0,0,1,.27-.73.85.85,0,0,1,.68-.32h7.12a1.24,1.24,0,0,1,.74.3.91.91,0,0,1,.39.75Z"/><path class="cls-2" d="M217.58,26.35l1,.9a14.49,14.49,0,0,0,1.43,1.11,12.47,12.47,0,0,0,2.41,1.27,7,7,0,0,0,2.49.45,6.63,6.63,0,0,0,2-.27,3.47,3.47,0,0,0,1.29-.73,2.58,2.58,0,0,0,.68-1,4.07,4.07,0,0,0,.2-1.27,1.88,1.88,0,0,0-.56-1.32,5.68,5.68,0,0,0-1.37-1,11.63,11.63,0,0,0-1.68-.78L224,23.08a34.22,34.22,0,0,1-5-2.16,15.12,15.12,0,0,1-3.56-2.58,9.64,9.64,0,0,1-2.15-3.13,9.91,9.91,0,0,1-.71-3.81,9.06,9.06,0,0,1,.89-4,8.88,8.88,0,0,1,2.55-3.11,12.08,12.08,0,0,1,4-2,17.6,17.6,0,0,1,5.21-.71,17.15,17.15,0,0,1,4.15.49,15.92,15.92,0,0,1,3.91,1.57q.81.48,1.53,1a13.45,13.45,0,0,1,1.27,1,5.55,5.55,0,0,1,.87.91,1.28,1.28,0,0,1,.32.74,1.17,1.17,0,0,1-.15.58,4,4,0,0,1-.47.59L233,12.32a1.16,1.16,0,0,1-.81.4,1.07,1.07,0,0,1-.61-.18q-.27-.19-.6-.48l-.22-.2c-.32-.27-.67-.55-1.06-.83a8.77,8.77,0,0,0-1.25-.78,8.21,8.21,0,0,0-1.4-.57,5.1,5.1,0,0,0-1.5-.23,7.66,7.66,0,0,0-1.47.13,4.21,4.21,0,0,0-1.21.42,2.35,2.35,0,0,0-.84.75,2.26,2.26,0,0,0,0,2.3,3.2,3.2,0,0,0,1,.91,9.11,9.11,0,0,0,1.65.79c.66.24,1.42.51,2.29.8,1.68.56,3.24,1.14,4.65,1.75a15.76,15.76,0,0,1,3.68,2.18,9.06,9.06,0,0,1,2.41,3,9.38,9.38,0,0,1,.87,4.23,10.58,10.58,0,0,1-1.07,4.77,11,11,0,0,1-2.94,3.65,13.74,13.74,0,0,1-4.39,2.33,17.29,17.29,0,0,1-5.42.82,15.4,15.4,0,0,1-5.37-1,20.47,20.47,0,0,1-4.92-2.64,13,13,0,0,1-1.61-1.36l-1-1.08-.07-.08s0,0-.05-.06,0,0-.05,0a.1.1,0,0,0,0-.06l0,0a1.66,1.66,0,0,1-.55-1,1.36,1.36,0,0,1,.55-.91l4.11-3.94a1.52,1.52,0,0,1,.81-.36.94.94,0,0,1,.45.14A4.71,4.71,0,0,1,217.58,26.35Z"/><path class="cls-3" d="M25.1,37.54l-18-18,18-18,18,18Zm-13.51-18L25.1,33.06,38.61,19.55,25.1,6Z"/><path class="cls-1" d="M32.9,52.35l-18-18,18-18,18,18Zm-13.51-18L32.9,47.87,46.41,34.36,32.9,20.85Z"/><path class="cls-4" d="M40.7,37.54l-18-18,18-18,18,18Zm-13.51-18L40.7,33.06,54.2,19.55,40.7,6Z"/><rect class="cls-5" x="19.07" y="29.27" width="3.17" height="3.17" transform="translate(-15.77 23.64) rotate(-45)"/><rect class="cls-1" x="26.87" y="21.47" width="3.17" height="3.17" transform="translate(-7.97 26.87) rotate(-45)"/><rect class="cls-6" x="43.55" y="29.27" width="3.17" height="3.17" transform="translate(-8.6 40.96) rotate(-45)"/><rect class="cls-5" x="31.31" y="25.92" width="3.17" height="3.17" transform="translate(-9.81 31.32) rotate(-45)"/><rect class="cls-6" x="31.31" y="10.01" width="3.17" height="3.17" transform="translate(1.44 26.66) rotate(-45)"/></svg>