<?xml version="1.0" encoding="utf-8"?>
<!-- Generator: Adobe Illustrator 22.1.0, SVG Export Plug-In . SVG Version: 6.00 Build 0)  -->
<svg version="1.1" id="Layer_1" xmlns="http://www.w3.org/2000/svg" xmlns:xlink="http://www.w3.org/1999/xlink" x="0px" y="0px"
	 viewBox="0 0 245.8 53.9" style="enable-background:new 0 0 245.8 53.9;" xml:space="preserve">
<style type="text/css">
	.st0{fill:#FFFFFF;}
</style>
<title>Mesa de trabajo 4</title>
<path class="st0" d="M58.8,3.4c0-0.3,0.1-0.6,0.3-0.8c0.2-0.2,0.5-0.3,0.8-0.3h25.6c0.3,0,0.5,0.1,0.8,0.3c0.2,0.2,0.4,0.5,0.4,0.8
	v5.9c0,0.3-0.1,0.6-0.3,0.8c-0.2,0.3-0.5,0.4-0.8,0.4h-8.2v26.2c0,0.3-0.1,0.6-0.3,0.8c-0.2,0.2-0.5,0.4-0.8,0.3h-7
	c-0.3,0-0.6-0.1-0.8-0.3C68.1,37.3,68,37,68,36.7V10.5h-8.1c-0.3,0-0.6-0.1-0.8-0.3c-0.2-0.2-0.4-0.6-0.3-0.9L58.8,3.4z"/>
<path class="st0" d="M92.4,3.4c0-0.3,0.1-0.6,0.3-0.8c0.2-0.2,0.5-0.3,0.8-0.3h15.4c1.6,0,3.1,0.3,4.6,0.9c2.8,1.2,5.1,3.4,6.2,6.2
	c0.6,1.4,0.9,3,0.9,4.5c0,1-0.1,2.1-0.4,3.1c-0.3,1-0.7,1.9-1.2,2.8c-1.1,1.7-2.5,3.1-4.2,4.1l6.1,11.6c0.1,0.2,0.3,0.5,0.4,0.8
	c0.2,0.2,0.2,0.5,0.3,0.8c0,0.2-0.1,0.4-0.2,0.6c-0.2,0.1-0.4,0.2-0.7,0.2h-8.2c-0.3,0-0.5-0.1-0.7-0.2c-0.2-0.2-0.4-0.4-0.4-0.7
	L105.4,26h-3.8v10.8c0,0.7-0.4,1-1.1,1h-7.1c-0.3,0-0.5-0.1-0.8-0.2c-0.2-0.2-0.3-0.5-0.3-0.8V3.4z M111,14c0-0.5-0.1-1-0.3-1.4
	c-0.2-0.5-0.4-0.9-0.7-1.3c-0.3-0.4-0.7-0.7-1.1-1c-0.5-0.3-1-0.5-1.5-0.5l-1.2-0.1c-0.4,0-0.8,0-1.3,0h-3.3v8.8h4.4
	c0.3,0,0.5,0,0.8,0s0.5,0,0.7-0.1c0.5-0.1,1-0.2,1.5-0.5c0.4-0.3,0.8-0.6,1.1-1c0.3-0.4,0.5-0.8,0.7-1.3C111,15,111,14.5,111,14z"/>
<path class="st0" d="M125.9,3.4c0-0.3,0.1-0.5,0.3-0.7c0.2-0.2,0.5-0.3,0.8-0.3h7c0.3,0,0.5,0.1,0.8,0.3c0.3,0.2,0.4,0.5,0.4,0.8
	v33.4c0,0.7-0.4,1-1.2,1h-7c-0.5,0-1-0.3-1-0.9c0,0,0-0.1,0-0.1L125.9,3.4z"/>
<path class="st0" d="M142.7,3.4c0-0.3,0.1-0.6,0.3-0.8c0.2-0.2,0.5-0.3,0.8-0.3h15.8c1.4,0,2.7,0.3,3.9,0.8c1.2,0.5,2.3,1.3,3.2,2.2
	c0.9,0.9,1.7,2,2.2,3.3c0.5,1.3,0.8,2.6,0.8,4c0,1.1-0.2,2.3-0.6,3.3c-0.4,1-0.9,1.9-1.6,2.8c1.1,1.1,2.1,2.3,2.7,3.8
	c0.7,1.4,1,3,1,4.6c0,1.4-0.3,2.8-0.8,4.1c-0.5,1.3-1.3,2.4-2.2,3.4c-0.9,1-2.1,1.8-3.3,2.4c-1.3,0.6-2.6,0.9-4,0.9h-17.2
	c-0.3,0-0.5-0.1-0.8-0.2c-0.2-0.2-0.3-0.5-0.3-0.8L142.7,3.4z M160.6,12.8c0-0.5-0.1-0.9-0.3-1.3c-0.2-0.4-0.4-0.8-0.7-1.1
	c-0.3-0.3-0.7-0.6-1.1-0.8c-0.5-0.2-1-0.3-1.5-0.3h-5.1v6.9h5c0.5,0,1-0.1,1.5-0.2c0.4-0.2,0.8-0.4,1.1-0.7c0.3-0.3,0.6-0.7,0.8-1.1
	C160.5,13.8,160.6,13.3,160.6,12.8z M161.9,26.7c0-0.5-0.1-1-0.3-1.4c-0.2-0.5-0.4-0.9-0.8-1.3c-0.3-0.4-0.7-0.7-1.2-0.9
	c-0.4-0.2-1-0.4-1.5-0.4h-6.3v8h6.3c0.5,0,1-0.1,1.4-0.3c0.4-0.2,0.8-0.5,1.2-0.9c0.3-0.4,0.6-0.8,0.8-1.3
	C161.8,27.8,161.9,27.2,161.9,26.7z"/>
<path class="st0" d="M185.4,23.7c0,1,0.1,2,0.5,3c0.3,0.7,0.7,1.4,1.3,2c0.5,0.5,1.2,0.9,1.9,1.1c0.7,0.2,1.5,0.4,2.2,0.4
	c0.8,0,1.5-0.1,2.2-0.4c0.7-0.3,1.3-0.7,1.9-1.2c0.6-0.6,1-1.3,1.3-2c0.3-0.9,0.5-1.8,0.5-2.8V3.4c0-0.3,0.1-0.5,0.3-0.7
	c0.2-0.2,0.5-0.3,0.8-0.3h6.9c0.3,0,0.6,0.1,0.9,0.3c0.2,0.2,0.3,0.5,0.3,0.7v20.2c0.1,2.4-0.4,4.8-1.2,7c-0.7,1.8-1.9,3.3-3.3,4.6
	c-1.4,1.2-3,2-4.8,2.5c-1.9,0.5-3.8,0.8-5.7,0.8c-1.9,0-3.9-0.3-5.7-0.8c-1.8-0.5-3.4-1.4-4.8-2.5c-1.4-1.3-2.6-2.8-3.3-4.6
	c-0.9-2.2-1.3-4.6-1.2-7V3.4c0-0.3,0.1-0.5,0.3-0.7c0.2-0.2,0.4-0.3,0.7-0.3h7.1c0.3,0,0.5,0.1,0.7,0.3c0.2,0.2,0.4,0.5,0.4,0.8
	V23.7z"/>
<path class="st0" d="M217.6,26.4l1,0.9c0.5,0.4,0.9,0.8,1.4,1.1c0.8,0.5,1.6,0.9,2.4,1.3c0.8,0.3,1.6,0.5,2.5,0.5
	c0.7,0,1.4-0.1,2-0.3c0.5-0.1,0.9-0.4,1.3-0.7c0.3-0.3,0.5-0.6,0.7-1c0.1-0.4,0.2-0.8,0.2-1.3c0-0.5-0.2-1-0.6-1.3
	c-0.4-0.4-0.9-0.7-1.4-1c-0.5-0.3-1.1-0.6-1.7-0.8l-1.5-0.6c-1.7-0.6-3.4-1.3-5-2.2c-1.3-0.7-2.5-1.6-3.6-2.6
	c-0.9-0.9-1.6-2-2.1-3.1c-0.5-1.2-0.7-2.5-0.7-3.8c0-1.4,0.3-2.8,0.9-4c0.6-1.2,1.5-2.3,2.6-3.1c1.2-0.9,2.6-1.6,4-2
	c1.7-0.5,3.4-0.7,5.2-0.7c1.4,0,2.8,0.2,4.1,0.5c1.4,0.3,2.7,0.9,3.9,1.6c0.5,0.3,1.1,0.7,1.5,1c0.4,0.3,0.9,0.6,1.3,1
	c0.3,0.3,0.6,0.6,0.9,0.9c0.2,0.2,0.3,0.5,0.3,0.7c0,0.2-0.1,0.4-0.1,0.6c-0.1,0.2-0.3,0.4-0.5,0.6l-3.7,3.9
	c-0.2,0.2-0.5,0.4-0.8,0.4c-0.2,0-0.4-0.1-0.6-0.2c-0.2-0.1-0.4-0.3-0.6-0.5l-0.2-0.2c-0.3-0.3-0.7-0.6-1.1-0.8
	c-0.4-0.3-0.8-0.6-1.2-0.8c-0.4-0.2-0.9-0.4-1.4-0.6c-0.5-0.2-1-0.2-1.5-0.2c-0.5,0-1,0-1.5,0.1c-0.4,0.1-0.8,0.2-1.2,0.4
	c-0.3,0.2-0.6,0.4-0.8,0.8c-0.4,0.7-0.4,1.6,0,2.3c0.3,0.4,0.6,0.7,1,0.9c0.5,0.3,1.1,0.6,1.6,0.8c0.7,0.2,1.4,0.5,2.3,0.8
	c1.7,0.6,3.2,1.1,4.6,1.8c1.3,0.6,2.6,1.3,3.7,2.2c1,0.8,1.8,1.8,2.4,3c0.6,1.3,0.9,2.8,0.9,4.2c0,1.7-0.3,3.3-1.1,4.8
	c-0.7,1.4-1.7,2.7-2.9,3.6c-1.3,1-2.8,1.8-4.4,2.3c-1.8,0.6-3.6,0.8-5.4,0.8c-1.8,0-3.7-0.3-5.4-1c-1.8-0.7-3.4-1.5-4.9-2.6
	c-0.6-0.4-1.1-0.9-1.6-1.4l-1-1.1l-0.1-0.1c0,0,0,0-0.1-0.1s0,0-0.1,0c0,0,0,0,0-0.1l0,0c-0.3-0.3-0.5-0.6-0.6-1
	c0.1-0.4,0.3-0.7,0.6-0.9l4.1-3.9c0.2-0.2,0.5-0.3,0.8-0.4c0.2,0,0.3,0.1,0.4,0.1C217.2,26.1,217.4,26.2,217.6,26.4z"/>
<path class="st0" d="M25.1,37.5l-18-18l18-18l18,18L25.1,37.5z M11.6,19.5l13.5,13.5l13.5-13.5L25.1,6L11.6,19.5z"/>
<path class="st0" d="M32.9,52.3l-18-18l18-18l18,18L32.9,52.3z M19.4,34.3l13.5,13.5l13.5-13.5L32.9,20.9L19.4,34.3z"/>
<path class="st0" d="M40.7,37.5l-18-18l18-18l18,18L40.7,37.5z M27.2,19.5l13.5,13.5l13.5-13.5L40.7,6L27.2,19.5z"/>
<rect x="19.1" y="29.3" transform="matrix(0.7071 -0.7071 0.7071 0.7071 -15.7669 23.6404)" class="st0" width="3.2" height="3.2"/>
<rect x="26.9" y="21.5" transform="matrix(0.7071 -0.7071 0.7071 0.7071 -7.9662 26.871)" class="st0" width="3.2" height="3.2"/>
<rect x="43.5" y="29.3" transform="matrix(0.7071 -0.7071 0.7071 0.7071 -8.6039 40.9533)" class="st0" width="3.2" height="3.2"/>
<rect x="31.3" y="25.9" transform="matrix(0.7071 -0.7071 0.7071 0.7071 -9.8156 31.3204)" class="st0" width="3.2" height="3.2"/>
<rect x="31.3" y="10" transform="matrix(0.7071 -0.7071 0.7071 0.7071 1.4345 26.6604)" class="st0" width="3.2" height="3.2"/>
</svg>
