<svg xmlns="http://www.w3.org/2000/svg" viewBox="0 0 36.96 38"><defs><style>.cls-1{fill:#95c122;}</style></defs><title>Recurso 7</title><g id="Capa_2" data-name="Capa 2"><g id="vectores_IMGs" data-name="vectores IMGs"><path class="cls-1" d="M24,12.06A12.09,12.09,0,0,1,21,20a11.9,11.9,0,0,1-3.51,2.76,12.17,12.17,0,0,1-4.43,1.31,11.93,11.93,0,0,1-4.76-.52A12.08,12.08,0,0,1,4,21.1a11.91,11.91,0,0,1-3-4.06,12.37,12.37,0,0,1-1.06-5l.07-1.28c.06-.42.13-.84.2-1.27s.22-.82.34-1.23.3-.8.46-1.2A12.12,12.12,0,0,1,4,3,12.38,12.38,0,0,1,8.32.58,12.07,12.07,0,0,1,24,12.06Zm-.26,0A10.62,10.62,0,0,0,13.08,1.45,10.6,10.6,0,1,0,23.75,12.06Z"/><path class="cls-1" d="M18.47,14a12.09,12.09,0,0,1,7.94,3A12,12,0,0,1,30,29.68a11.94,11.94,0,0,1-6.51,7.26,12.37,12.37,0,0,1-5,1.06l-1.28-.07-1.26-.2c-.42-.09-.83-.22-1.24-.34s-.8-.3-1.2-.46a12.22,12.22,0,0,1-4.06-3A12.38,12.38,0,0,1,7,29.68,12.07,12.07,0,0,1,18.47,14Zm0,.26A10.62,10.62,0,0,0,11,32.4a10.61,10.61,0,0,0,15-15A10.72,10.72,0,0,0,18.47,14.25Z"/><path class="cls-1" d="M13,12.06a12.09,12.09,0,0,1,3-7.94,11.9,11.9,0,0,1,3.51-2.76A12.17,12.17,0,0,1,23.88.05a11.91,11.91,0,0,1,4.76.52A12.25,12.25,0,0,1,32.93,3a12.16,12.16,0,0,1,3,4.07,12.37,12.37,0,0,1,1.06,5l-.07,1.28c-.06.42-.13.84-.2,1.27s-.22.82-.34,1.23-.3.8-.46,1.2a12.22,12.22,0,0,1-3,4.06,12.29,12.29,0,0,1-4.28,2.44A12.07,12.07,0,0,1,13,12.06Zm.26,0a10.64,10.64,0,1,0,3.15-7.53A10.65,10.65,0,0,0,13.21,12.06Z"/></g></g></svg>