<svg xmlns="http://www.w3.org/2000/svg" viewBox="0 0 30.95 38"><defs><style>.cls-1{fill:#95c122;}</style></defs><title>Recurso 2</title><g id="Capa_2" data-name="Capa 2"><g id="vectores_IMGs" data-name="vectores IMGs"><path class="cls-1" d="M26.78,7.4,19.38,0l-4,4-4-4L4,7.4l6.89,6.89L6.51,18.72l8.9,13.22L24.3,18.72l-4.42-4.43ZM19.38,1,25.75,7.4l-6.37,6.37-3.46-3.46L18.83,7.4,15.92,4.49Zm-4,8.76L13,7.4,15.41,5,17.8,7.4ZM11.44,1l3.45,3.46L12,7.4l2.91,2.91-3.45,3.46L5.07,7.4Zm4,23.86a1.73,1.73,0,1,1,1.72-1.73A1.74,1.74,0,0,1,15.41,24.89Zm.36,5.21V25.58a2.45,2.45,0,1,0-.73,0V30.1L7.45,18.81l8-8,8,8Z"/><path class="cls-1" d="M24.54,23.63A1.62,1.62,0,0,0,24,26.78a8.76,8.76,0,0,1-17.24,0,1.62,1.62,0,1,0-.72.07,9.49,9.49,0,0,0,18.68,0,1.62,1.62,0,0,0-.21-3.22ZM5.39,25.25a.9.9,0,1,1,.89.9A.9.9,0,0,1,5.39,25.25Zm19.15.9a.9.9,0,1,1,.9-.9A.9.9,0,0,1,24.54,26.15Z"/><path class="cls-1" d="M29.33,34.75A1.63,1.63,0,0,0,27.75,36H16.9V34.89h-3V36H3.2a1.63,1.63,0,1,0,0,.73H13.92v1.13h3V36.74H27.75a1.62,1.62,0,1,0,1.58-2ZM1.62,37.27a.9.9,0,1,1,.9-.89A.89.89,0,0,1,1.62,37.27Zm14.55-1.65v1.52H14.65v-.4h0V36h0v-.39Zm13.16,1.65a.9.9,0,1,1,.9-.89A.9.9,0,0,1,29.33,37.27Z"/></g></g></svg>