<svg xmlns="http://www.w3.org/2000/svg" viewBox="0 0 44.51 39.46"><defs><style>.cls-1{fill:#1d1d1b;}.cls-2{fill:#95c122;}.cls-3{fill:none;stroke:#95c122;stroke-miterlimit:10;stroke-width:1.46px;}</style></defs><title>Recurso 4</title><g id="Capa_2" data-name="Capa 2"><g id="vectores_IMGs" data-name="vectores IMGs"><path class="cls-1" d="M36.26,9.66a1.09,1.09,0,0,0-1.55,0L27.1,17.27,23.8,14l2.78-2.78A1.09,1.09,0,1,0,25,9.66l-2.77,2.77L19.48,9.66a1.09,1.09,0,0,0-1.54,1.54L20.71,14l-3.29,3.29L9.8,9.66A1.09,1.09,0,0,0,8.25,11.2l9.17,9.16,4.84-4.84,4.84,4.84,9.16-9.16A1.08,1.08,0,0,0,36.26,9.66Z"/><path class="cls-2" d="M36.26,9.66a1.09,1.09,0,0,0-1.55,0L27.1,17.27,23.8,14l2.78-2.78A1.09,1.09,0,1,0,25,9.66l-2.77,2.77L19.48,9.66a1.09,1.09,0,0,0-1.54,1.54L20.71,14l-3.29,3.29L9.8,9.66A1.09,1.09,0,0,0,8.25,11.2l9.17,9.16,4.84-4.84,4.84,4.84,9.16-9.16A1.08,1.08,0,0,0,36.26,9.66Z"/><rect class="cls-3" x="0.73" y="0.73" width="43.06" height="25.33" rx="3.21" ry="3.21"/><rect class="cls-3" x="0.73" y="29.66" width="43.06" height="9.06" rx="3.21" ry="3.21"/><circle class="cls-2" cx="38.28" cy="34.2" r="1.36"/></g></g></svg>