<svg xmlns="http://www.w3.org/2000/svg" viewBox="0 0 38.65 38"><defs><style>.cls-1{fill:#95c122;}</style></defs><title>Recurso 6</title><g id="Capa_2" data-name="Capa 2"><g id="vectores_IMGs" data-name="vectores IMGs"><path class="cls-1" d="M36.71,11a2,2,0,0,0-.87.22l-8.4-8.41a1.94,1.94,0,1,0-3.68-.87,2,2,0,0,0,.2.85L19.33,7.42,14.7,2.8a1.92,1.92,0,0,0,.21-.86,1.95,1.95,0,0,0-3.89,0,1.92,1.92,0,0,0,.21.86L2.81,11.22A1.93,1.93,0,0,0,1.94,11a1.95,1.95,0,0,0,0,3.89,1.93,1.93,0,0,0,.87-.21l7.49,7.49L9.17,23.3a1.92,1.92,0,0,0-.86-.21,1.95,1.95,0,1,0,0,3.89,1.92,1.92,0,0,0,.86-.21l8.48,8.48a2,2,0,0,0-.18.81,1.95,1.95,0,0,0,3.89,0,1.89,1.89,0,0,0-.25-.92l8.37-8.37a2,2,0,0,0,.87.21,1.95,1.95,0,0,0,0-3.89,2,2,0,0,0-.87.21l-1.13-1.13,7.49-7.49a2,2,0,0,0,.87.21,1.95,1.95,0,0,0,0-3.89ZM25.71.92a1,1,0,1,1-1,1A1,1,0,0,1,25.71.92ZM23.12,13l-2,2-1.8-1.8L17.53,15l-2-2,3.8-3.8Zm-4.73,2.86.94-.93.93.93-.93.93Zm.07,1.8L13,23.11,12,22.17l5.5-5.49Zm2.67-.93,5.49,5.49-.93.94-5.5-5.5ZM13,.92a1,1,0,1,1-1,1A1,1,0,0,1,13,.92ZM1.94,14a1,1,0,1,1,1-1A1,1,0,0,1,1.94,14Zm1.74-.16A1.92,1.92,0,0,0,3.89,13a2,2,0,0,0-.21-.87l8.41-8.41a1.85,1.85,0,0,0,1.75,0l4.62,4.62L13.8,13l2.86,2.86-5.49,5.5ZM8.31,26.06a1,1,0,1,1,1-1A1,1,0,0,1,8.31,26.06Zm11.1,11a1,1,0,1,1,1-1A1,1,0,0,1,19.41,37.08ZM30.35,24a1,1,0,1,1-1,1A1,1,0,0,1,30.35,24Zm-1.73.16a1.89,1.89,0,0,0,0,1.73l-8.4,8.4a1.86,1.86,0,0,0-.81-.19,2.06,2.06,0,0,0-.92.24L10,25.9a1.89,1.89,0,0,0,0-1.73L11.17,23l1.8,1.8,6.36-6.36,6.36,6.36,1.8-1.8ZM35,13.81l-7.49,7.5L22,15.81,24.85,13,20.19,8.29l4.63-4.63a1.87,1.87,0,0,0,.89.23,1.8,1.8,0,0,0,.86-.22L35,12.08a2,2,0,0,0-.21.87A1.92,1.92,0,0,0,35,13.81Zm1.73.16a1,1,0,1,1,1-1A1,1,0,0,1,36.71,14Z"/></g></g></svg>